<svg version="1.1" xmlns="http://www.w3.org/2000/svg" xmlns:xlink="http://www.w3.org/1999/xlink" viewBox="0 0 172 172"><g transform=""><g fill="none" fill-rule="nonzero" stroke="none" stroke-width="1" stroke-linecap="butt" stroke-linejoin="miter" stroke-miterlimit="10" stroke-dasharray="" stroke-dashoffset="0" font-family="none" font-weight="none" font-size="none" text-anchor="none" style="mix-blend-mode: normal"><path d="M0,172v-172h172v172z" fill="none"></path><g fill="#ffffff"><path d="M86,6.88c-3.80281,0 -6.88,3.07719 -6.88,6.88v11.04563c-5.38844,-3.48031 -11.9325,-8.34469 -19.8875,-10.18563c-3.10406,-0.72562 -6.235,-0.92719 -9.28531,-0.86c-3.03687,0.06719 -5.97969,0.40313 -8.73437,0.72563c-2.45906,0.30906 -4.70313,0.55094 -6.74563,0.71219l-0.06719,-0.14781l-0.06719,0.16125c-2.49938,0.18813 -4.64938,0.24188 -6.03344,-0.08062c-1.85438,-0.43 -3.69531,0.72562 -4.13875,2.56656c-0.43,1.85438 0.72562,3.70875 2.58,4.13875c1.51844,0.34938 3.09062,0.44344 4.67625,0.45688l-24.80563,60.25375l0.51063,1.29c0,0 7.78031,19.36344 27.27812,19.36344c19.49781,0 27.26469,-19.36344 27.26469,-19.36344l0.52406,-1.29l-24.98031,-60.67031c1.59906,-0.18812 3.17125,-0.36281 4.82406,-0.56437c5.38844,-0.645 10.91125,-1.08844 15.64125,0c6.46344,1.505 12.88656,6.30219 18.93344,10.07812c0.7525,0.45688 1.65281,0.61813 2.51281,0.44344v112.64656h13.76v-108.80344c0.44344,0.13437 0.91375,0.18812 1.37063,0.13437c7.21594,-0.68531 15.30531,-2.27094 21.90312,-0.72562c4.85094,1.11531 9.62125,3.73562 14.17656,6.40969c1.73344,1.03469 3.39969,2.01563 5.06594,2.96969l-25.585,62.16188l0.52406,1.29c0,0 7.76687,19.36344 27.26469,19.36344c19.49781,0 27.26469,-19.36344 27.26469,-19.36344l0.52406,-1.29l-24.46969,-59.46094c0.91375,0.34937 1.8275,0.68531 2.78156,0.90031c1.85437,0.44344 3.69531,-0.71219 4.12531,-2.56656c0.44344,-1.85438 -0.71219,-3.69531 -2.56656,-4.12531c-2.70094,-0.63156 -6.7725,-3.05031 -11.42188,-5.79156c-4.66281,-2.75469 -9.9975,-5.79156 -16.125,-7.2025c-4.34031,-1.02125 -8.72094,-1.02125 -12.84625,-0.69875c-4.11187,0.3225 -7.98187,0.9675 -11.27406,1.29c-0.24187,0.01344 -0.48375,0.06719 -0.71219,0.13438v-15.34563c0,-3.80281 -3.07719,-6.88 -6.88,-6.88zM34.4,33.11l20.25031,49.16781c-0.02688,0.04031 -0.13438,0.22844 -0.14781,0.28219h-40.205c-0.01344,-0.05375 -0.12094,-0.24187 -0.13437,-0.28219zM137.6,57.19l20.25031,49.16781c-0.02688,0.04031 -0.13438,0.22844 -0.14781,0.28219h-40.205c-0.01344,-0.05375 -0.12094,-0.24187 -0.14781,-0.28219zM55.04,151.36c-5.6975,0 -10.32,4.6225 -10.32,10.32v3.44h82.56v-3.44c0,-5.6975 -4.6225,-10.32 -10.32,-10.32z"></path></g></g></g></svg>