<svg version="1.1" xmlns="http://www.w3.org/2000/svg" xmlns:xlink="http://www.w3.org/1999/xlink" viewBox="0 0 172 172"><g fill="none" fill-rule="nonzero" stroke="none" stroke-width="1" stroke-linecap="butt" stroke-linejoin="miter" stroke-miterlimit="10" stroke-dasharray="" stroke-dashoffset="0" font-family="none" font-weight="none" font-size="none" text-anchor="none" style="mix-blend-mode: normal"><path d="M0,172v-172h172v172z" fill="none"></path><g fill="#ffffff"><path d="M32.25,16.125v139.75h57.89673l10.75,-10.75h-57.89673v-118.25h86v61.47656c3.40238,-1.20938 7.00363,-1.96784 10.75,-2.21509v-70.01148zM86,43c-4.92708,0 -9.3065,2.04119 -12.08325,5.16504c-2.77676,3.12385 -4.04175,7.07802 -4.04175,10.95996c0,3.49566 1.41055,6.91414 3.64282,9.86817c-5.32275,3.92614 -9.01782,9.93523 -9.01782,17.00683h10.75c0,-6.00208 4.74792,-10.75 10.75,-10.75c6.00208,0 10.75,4.74792 10.75,10.75h10.75c0,-7.07161 -3.69507,-13.0807 -9.01782,-17.00683c2.23228,-2.95402 3.64282,-6.3725 3.64282,-9.86817c0,-3.88194 -1.26499,-7.83611 -4.04175,-10.95996c-2.77676,-3.12385 -7.15617,-5.16504 -12.08325,-5.16504zM86,53.75c2.23958,0 3.23517,0.64631 4.04175,1.55371c0.80658,0.90741 1.33325,2.32823 1.33325,3.82129c0,1.49306 -0.5267,2.91389 -1.33325,3.82129c-0.80657,0.90739 -1.80217,1.55371 -4.04175,1.55371c-2.23958,0 -3.23517,-0.64631 -4.04175,-1.55371c-0.80658,-0.90741 -1.33325,-2.32823 -1.33325,-3.82129c0,-1.49306 0.52667,-2.91389 1.33325,-3.82129c0.80657,-0.90739 1.80217,-1.55371 4.04175,-1.55371zM59.125,96.75v10.75h53.75v-10.75zM142.4375,96.75c-16.125,0 -29.5625,13.4375 -29.5625,29.5625c0,6.45 2.15,11.8229 5.375,16.6604l-21.5,21.5l7.5271,7.5271l21.5,-21.5c4.8375,3.225 10.7479,5.375 16.6604,5.375c16.125,0 29.5625,-13.4375 29.5625,-29.5625c0,-16.125 -13.4375,-29.5625 -29.5625,-29.5625zM142.4375,107.5c10.2125,0 18.8125,8.6 18.8125,18.8125c0,10.2125 -8.6,18.8125 -18.8125,18.8125c-10.2125,0 -18.8125,-8.6 -18.8125,-18.8125c0,-10.2125 8.6,-18.8125 18.8125,-18.8125zM59.125,118.25v10.75h43v-10.75z"></path></g></g></svg>