<?xml version="1.0" encoding="utf-8"?>
<!-- Generator: Adobe Illustrator 18.0.0, SVG Export Plug-In . SVG Version: 6.00 Build 0)  -->
<!DOCTYPE svg PUBLIC "-//W3C//DTD SVG 1.1//EN" "http://www.w3.org/Graphics/SVG/1.1/DTD/svg11.dtd">
<svg width="12px" height="11px" version="1.1" id="Layer_1" xmlns="http://www.w3.org/2000/svg" xmlns:xlink="http://www.w3.org/1999/xlink" x="0px" y="0px"
	 viewBox="0 0 11 10" enable-background="new 0 0 11 10" xml:space="preserve">
<path fill="#FFC000" d="M6.5,5.3c-2,0-3.7-0.7-4.3-1.7c0.7,0.6,1.9,1,3.3,1c2.2,0,4.1-1,4.1-2.3C9.6,1,7.7,0,5.5,0
	C3.3,0,1.4,1,1.4,2.3c0,0.4,0.2,0.8,0.6,1.2v1.7c0.4,1.2,2.3,2,4.5,2c0.7,0,1.3-0.1,1.9-0.2c-0.8,0.8-2.3,1.3-4,1.3
	c-2.2,0-4.1-0.9-4.5-2V8c0.4,1.2,2.3,2,4.5,2C6.7,10,8.6,9.1,9,8V6.8c1-0.4,1.8-0.9,2-1.6V3.3C10.6,4.4,8.7,5.3,6.5,5.3z"/>
</svg>
